[IMG]http://img814.imageshack.us/img814/6439/dorrough.png[/IMG]

[IMG]http://img62.imageshack.us/img62/7739/dorrough2.png[/IMG]

Brand new video from Dallas Texas, Get Big by the Dorrough. Check out this hot video directed by very talented music video director Dr Teeth. Dr Teeth has directed most of Dorrough's video which include videos like, Ice Cream Paint Job, Wired To The T and Walk That Walk. Check out the latest video Get Big by Dorrough!

[CODE]General
Complete name                    : Dorrough - Get Big [KingPinVideos].mpg
Format                           : MPEG-PS
File size                        : 81.8 MiB
Duration                         : 3mn 59s
Overall bit rate                 : 2 866 Kbps
Writing library                  : encoded by TMPGEnc 4.0 XPress Version. 4.7.4.299

Video
ID                               : 224 (0xE0)
Format                           : MPEG Video
Format version                   : Version 1
Format settings, BVOP            : Yes
Format settings, Matrix          : Default
Duration                         : 3mn 54s
Bit rate mode                    : Constant
Bit rate                         : 2 560 Kbps
Nominal bit rate                 : 2 700 Kbps
Width                            : 384 pixels
Height                           : 208 pixels
Display aspect ratio             : 16:9
Frame rate                       : 29.970 fps
Resolution                       : 8 bits
Scan type                        : Progressive
Bits/(Pixel*Frame)               : 1.069
Stream size                      : 71.6 MiB (87%)
Writing library                  : TMPGEnc XPress 4.7.4.299

Audio
ID                               : 192 (0xC0)
Format                           : MPEG Audio
Format version                   : Version 1
Format profile                   : Layer 3
Duration                         : 3mn 59s
Bit rate mode                    : Constant
Bit rate                         : 192 Kbps
Channel(s)                       : 2 channels
Sampling rate                    : 48.0 KHz
Stream size                      : 5.48 MiB (7%)[/CODE]